<svg width="24" height="24" viewBox="0 0 24 24" fill="none" xmlns="http://www.w3.org/2000/svg">
<path fill-rule="evenodd" clip-rule="evenodd" d="M12.0001 4C9.79007 4 8.00007 5.79 8.00007 8C8.00007 10.21 9.79007 12 12.0001 12C14.2101 12 16.0001 10.21 16.0001 8C16.0001 5.79 14.2101 4 12.0001 4ZM14.1003 8C14.1003 6.84 13.1603 5.9 12.0003 5.9C10.8403 5.9 9.90032 6.84 9.90032 8C9.90032 9.16 10.8403 10.1 12.0003 10.1C13.1603 10.1 14.1003 9.16 14.1003 8ZM18.1005 17C18.1005 16.36 14.9705 14.9 12.0005 14.9C9.03046 14.9 5.90046 16.36 5.90046 17V18.1H18.1005V17ZM4 17C4 14.34 9.33 13 12 13C14.67 13 20 14.34 20 17V20H4V17Z" fill="white"/>
</svg>
